# xmcd
#
# Track frame offsets:
#	150
#	18155
#	34413
#	47213
#	64414
#	76686
#	92088
#	109863
#	125468
#	143443
#	162291
#	177838
#	192435
#	207921
#	225616
#
# Disc length: 3252
#
# Revision: 2
# Processed by: cddbd v1.5.1PL0 Copyright (c) Steve Scherf et al.
# Submitted via: CDex 1.30Release
# Normalized: r1:DSETVAR1,TDELIM( - )
#
DISCID=c60cb20f
DTITLE=Various Artist - CDX Volume 295 - July 2002
DYEAR=2002
DGENRE=Country
TTITLE0=Chad Brock - A Man's Gotta Do
TTITLE1=Hank III - Cecil Brown
TTITLE2=Emerson Drive - Fall Into Me
TTITLE3=Sawyer Brown - I Need A Girlfriend
TTITLE4=Dean Miller - Love Is A Game
TTITLE5=Gene Watson - No Trash In My Trailer
TTITLE6=Keith Urban - Somebody Like You
TTITLE7=Jenai - South Side Stomp
TTITLE8=John Michael Montgomery - 'Til Nothing Comes Between Us
TTITLE9=Alan Jackson - Work In Progress
TTITLE10=Sonny Burgess - Alone With You
TTITLE11=Tanya Tucker - A Memory Like I'm Gonna Be
TTITLE12=Gerry Lehr - Changes If I Could
TTITLE13=Jeff and Sheri Easter - She Loved
TTITLE14=Russell Smith - Walk These Hills
EXTD=YEAR: 2002 ID3G:   2
EXTT0=
EXTT1=
EXTT2=
EXTT3=
EXTT4=
EXTT5=
EXTT6=
EXTT7=
EXTT8=
EXTT9=
EXTT10=
EXTT11=
EXTT12=
EXTT13=
EXTT14=
PLAYORDER=
